<svg width="200" height="200" viewBox="0 0 200 200" fill="none" xmlns="http://www.w3.org/2000/svg">
<rect width="200" height="200" fill="#121212"/>
<path d="M96.392 91.1875H83.9489C83.7216 89.5777 83.2576 88.1477 82.5568 86.8977C81.8561 85.6288 80.9564 84.5492 79.858 83.6591C78.7595 82.7689 77.4905 82.0871 76.0511 81.6136C74.6307 81.1402 73.0871 80.9034 71.4205 80.9034C68.4091 80.9034 65.786 81.6515 63.5511 83.1477C61.3163 84.625 59.5833 86.7841 58.3523 89.625C57.1212 92.447 56.5057 95.875 56.5057 99.9091C56.5057 104.057 57.1212 107.542 58.3523 110.364C59.6023 113.186 61.3447 115.316 63.5795 116.756C65.8144 118.195 68.3996 118.915 71.3352 118.915C72.983 118.915 74.5076 118.697 75.9091 118.261C77.3295 117.826 78.589 117.191 79.6875 116.358C80.786 115.506 81.6951 114.473 82.4148 113.261C83.1534 112.049 83.6648 110.667 83.9489 109.114L96.392 109.17C96.0701 111.841 95.2652 114.417 93.9773 116.898C92.7083 119.36 90.9943 121.566 88.8352 123.517C86.6951 125.449 84.1383 126.983 81.1648 128.119C78.2102 129.237 74.8674 129.795 71.1364 129.795C65.947 129.795 61.3068 128.621 57.2159 126.273C53.1439 123.924 49.9242 120.525 47.5568 116.074C45.2083 111.623 44.0341 106.235 44.0341 99.9091C44.0341 93.5644 45.2273 88.1667 47.6136 83.7159C50 79.2652 53.2386 75.875 57.3295 73.5455C61.4205 71.197 66.0227 70.0227 71.1364 70.0227C74.5076 70.0227 77.6326 70.4962 80.5114 71.4432C83.4091 72.3902 85.9754 73.7727 88.2102 75.5909C90.4451 77.3901 92.2633 79.5966 93.6648 82.2102C95.0852 84.8239 95.9943 87.8163 96.392 91.1875ZM115.724 70.8182L129.787 115.023H130.327L144.418 70.8182H158.054L137.997 129H122.145L102.06 70.8182H115.724Z" fill="#99444F"/>
</svg>
